<svg width="592" height="234" viewBox="0 0 592 234" fill="none" xmlns="http://www.w3.org/2000/svg">
<g clip-path="url(#clip0_303_61)">
<path d="M241.531 91.4664C223.871 108.156 204.141 122.456 183.811 135.746C176.281 140.666 167.171 145.276 160.071 150.406C159.441 150.866 158.791 151.316 158.391 151.996C162.561 159.786 162.091 167.856 172.011 170.936C181.681 173.936 191.921 171.836 201.591 169.856C205.681 169.016 210.701 167.016 214.761 166.706C215.761 166.626 216.651 166.206 216.381 167.606C208.821 169.606 200.731 172.466 193.051 173.796C184.041 175.356 169.701 175.756 163.341 168.106C160.031 164.116 159.031 158.416 157.111 153.696L156.141 153.196C147.381 157.316 139.011 162.696 129.981 166.416C128.281 167.136 120.081 169.636 119.661 170.496C119.071 172.876 119.471 175.466 120.051 177.806C120.891 181.236 123.981 185.096 124.601 188.136C126.231 196.046 121.601 205.696 116.741 211.736C116.111 212.516 115.211 214.246 114.151 214.186C114.611 211.286 117.071 208.866 118.411 206.206C119.751 203.546 122.381 197.796 122.761 195.196C123.961 186.996 118.571 183.766 117.141 176.866C115.711 169.966 119.151 160.356 123.981 155.136C125.551 153.436 128.111 150.786 130.401 152.336L130.471 155.626C128.481 156.006 129.441 153.746 127.331 155.116C126.061 155.936 122.851 160.976 122.241 162.506C121.581 164.136 123.471 163.086 124.071 162.646C130.701 157.836 143.671 147.266 152.331 147.516C154.071 147.566 155.881 150.126 157.811 149.136C188.761 129.736 222.141 109.396 247.361 82.6664C271.251 57.3564 295.061 14.9264 240.631 9.70643C182.191 4.08643 101.211 52.0864 58.9507 90.0764C39.2407 107.796 5.83074 144.586 3.28074 171.686C-1.25926 219.896 61.5607 205.216 87.7807 192.346C91.3707 190.586 97.3407 185.926 100.821 185.686C101.341 185.656 102.201 185.086 101.931 186.326C98.0107 187.346 95.3107 190.126 91.8407 192.076C71.9107 203.276 25.3607 217.966 7.63073 197.936C-13.5593 173.986 14.4607 134.416 30.6507 115.056C70.6307 67.2564 152.471 15.7764 214.781 7.82643C292.521 -0.513567 290.651 46.5864 241.541 91.4664H241.531ZM125.241 164.046C124.711 164.526 124.031 164.756 124.241 165.676C125.361 166.706 149.111 154.266 151.741 152.626C152.291 152.286 154.561 151.116 153.991 150.326C152.721 149.886 151.871 149.806 150.521 149.956" fill="#FAF6F3"/>
<path d="M304.892 121.173C271.222 113.193 302.732 72.813 313.202 62.373C336.372 39.243 397.782 1.69299 430.722 0.092989C494.852 -3.60701 415.662 104.233 398.962 122.913C395.792 126.573 391.752 130.133 388.732 133.783C388.372 134.223 386.452 136.553 386.802 136.883L422.502 122.913C424.062 121.353 427.482 111.543 428.812 110.983C429.022 110.893 430.002 110.793 430.002 111.213L426.162 121.523C429.162 120.913 449.632 114.283 450.642 115.293C450.642 115.803 450.772 116.283 450.432 116.753C450.062 117.263 442.552 118.473 441.042 118.883C435.442 120.373 429.902 122.353 424.502 124.423L415.372 143.613L414.652 147.923L417.522 147.443C418.682 148.593 412.662 151.843 412.842 146.373C413.022 140.903 419.042 132.063 420.962 126.633C421.222 125.913 421.542 126.073 420.622 125.363C407.762 130.023 395.152 135.193 382.612 140.623C356.462 165.303 328.622 188.883 298.242 208.413C290.092 213.653 278.222 221.333 269.272 224.563C244.282 233.403 264.972 205.113 275.902 204.793C271.242 207.003 255.982 218.493 259.902 224.253C264.782 225.423 279.282 217.053 284.002 214.333C316.052 195.873 346.062 170.993 373.342 146.223C373.432 144.963 373.142 145.733 372.522 145.883C363.322 148.123 351.932 158.363 342.872 161.353C342.152 161.593 340.882 162.353 340.942 160.863C348.912 156.553 356.722 151.953 364.702 147.653C369.002 145.333 376.522 142.643 380.042 139.953C402.712 117.953 422.262 91.073 437.102 63.093C442.612 52.683 450.802 38.183 452.492 26.643C458.062 -11.447 410.472 4.13299 390.462 14.473C357.952 31.263 315.872 53.073 298.402 86.143C294.442 93.633 288.132 108.553 295.832 115.273C298.512 117.613 307.062 119.833 309.282 120.063H316.482C318.622 121.933 310.012 121.913 309.702 121.903" fill="#FAF6F3"/>
<path d="M462.34 142.348L476.79 133.538C478.88 132.818 476.43 135.208 475.66 136.238C475.03 137.068 473.08 139.828 472.82 140.598C471.66 144.168 476.11 140.178 477.64 139.328C477.8 139.238 477.87 139.058 477.81 138.878C477.14 136.738 477.93 133.748 480.61 133.968C482.58 134.128 481.02 136.258 485.29 134.338C500.15 127.658 505.89 115.358 515.43 103.648C515.94 103.018 519.65 98.9578 520.23 99.4378C521.16 100.218 519.07 102.848 518.51 103.718C513.5 111.378 505.65 117.938 500.86 126.038C500.69 126.328 500.94 126.668 501.27 126.618C503.17 126.288 507.09 123.488 507.73 125.648C508.01 128.148 504.42 129.678 504.01 131.458C503.77 132.528 503.52 135.988 504.7 136.358C505.55 136.628 511.85 134.628 512.9 134.098C514.88 133.098 517.17 128.968 519.89 129.738C520.61 129.938 521.06 131.218 521.85 131.078C523.23 130.838 524.14 126.958 526.23 127.748C527.16 129.218 524.65 129.968 523.6 131.358C522.36 132.988 520.72 135.598 524.1 134.738C530.09 133.228 534.01 128.118 539.19 125.338C539.9 125.228 540.06 125.338 539.92 126.068C539.63 127.538 537.77 129.398 537.54 131.178C537.5 131.458 537.81 131.678 538.07 131.558C539.93 130.688 545.01 124.468 544.63 128.808C544.55 129.658 542.95 132.298 544.48 132.068C546.52 131.758 550.5 127.118 553.19 126.358C554.6 125.958 553.91 128.038 553.54 129.108C553.44 129.388 553.69 129.678 553.98 129.608C556.15 129.068 563.18 125.998 564.25 125.438C565.45 124.808 567.41 122.678 568.59 122.518C569.69 122.368 570.14 123.418 570.88 123.428C571.62 123.438 572.45 122.118 573.52 122.468C574.41 123.348 569.45 126.948 572.41 127.438C576.16 128.068 583.04 125.408 586.48 124.388C587.16 124.428 586.22 125.018 585.82 125.218C583.42 126.478 574.85 128.828 572.29 128.428C571.57 128.318 570.5 127.708 569.98 127.788C568.96 127.958 563.48 135.038 560.27 133.558C560.16 133.508 560.08 133.398 560.06 133.278C559.73 131.698 559.61 130.718 560.49 129.548C560.69 129.288 560.49 128.898 560.17 128.928C557.51 129.188 555.28 131.888 552.25 131.108C551.59 130.938 551.87 129.308 550.32 129.718C547.78 130.388 541.73 139.328 542.04 130.848C542.05 130.538 541.69 130.338 541.44 130.528C539.63 131.908 537.61 135.458 535.89 134.898C533.96 134.268 536.12 131.278 536.4 129.538C536.46 129.178 536.05 128.938 535.78 129.178C532.56 131.968 525.02 137.548 521.49 136.308C520.67 136.018 521.05 134.778 520.01 134.918C518.84 135.078 516.13 138.148 514.26 137.838C512.66 137.678 513.03 135.918 511.84 135.848C509.33 135.698 505.51 139.398 503.08 136.748C502.52 136.138 502.69 134.698 501.86 134.068C501.79 134.018 501.7 133.978 501.62 133.988C500.63 134.148 497.91 137.728 496.11 137.458C495.91 137.428 495.76 137.248 495.78 137.048C496.13 133.408 503.15 130.678 505.28 128.128C506.4 126.778 505.97 126.068 504.3 126.588C496.17 129.098 490.82 139.988 484.01 144.538C483.25 143.998 483.3 143.808 483.38 142.958C483.58 140.908 494.77 131.638 496.72 129.428L496.01 128.718C493.81 130.718 491.26 132.398 488.71 133.898C486.16 135.398 482.88 136.558 480.71 137.898C478.54 139.238 475.98 142.718 473.2 143.388C468.44 144.528 473.69 137.118 474.68 136.128C476 134.958 471.54 137.948 470.94 138.208C469.97 138.628 460.72 144.408 460.11 145.008C459.35 145.748 455.38 153.418 453.25 150.338C451.12 147.258 457.74 145.678 458.55 144.058C459.71 141.738 459.69 138.438 460.16 135.838C460.2 135.598 460.02 135.388 459.78 135.388C459.29 135.388 456.86 136.708 456.39 136.928C450.89 139.528 445.03 141.258 440.31 143.098C438.5 143.808 431.42 149.238 429.75 146.468C428.27 144.018 435.21 134.158 435.52 134.538C437.79 132.988 428.37 144.798 431.5 145.838C431.61 145.878 431.71 145.888 431.84 145.838L436.12 143.928C436.24 143.878 436.3 143.758 436.35 143.638C436.65 142.898 436.24 141.118 437.12 139.408C438.81 136.158 444.91 135.018 443.83 138.328C443.71 138.708 441.32 141.348 443.28 140.748C447.91 139.308 456.09 136.208 460.26 133.758C461.8 132.858 467 128.218 467.69 128.208C468.32 128.208 469.05 128.788 468.89 129.418C463.81 132.598 461.79 133.428 461.53 135.108C461.39 136.018 460.38 143.268 460.53 143.328M570.15 124.888C570.05 124.758 568.74 124.488 568.27 124.638C567.42 124.918 562.23 129.468 561.52 131.098C561.42 131.338 561.59 131.618 561.85 131.628C563.27 131.708 564.33 130.918 565.46 130.138C566.17 129.648 570.63 125.498 570.15 124.888ZM520.71 131.608C519.66 130.718 513.56 135.148 514.47 135.918C515.73 136.688 521.6 132.358 520.71 131.608ZM478.92 135.938C478.13 141.138 483.79 133.268 479.44 135.448L478.92 135.938ZM442.94 137.838C443.03 137.608 442.88 137.338 442.64 137.308C440.84 137.078 439.16 138.118 438.22 139.548C436.68 141.898 438.33 142.628 440.32 141.198C440.78 140.868 442.55 138.808 442.94 137.828V137.838Z" fill="#FAF6F3"/>
<path d="M220.231 151.772C219.611 151.832 215.751 154.742 212.961 154.392C208.021 153.772 215.231 145.242 215.911 146.022C216.471 146.292 215.401 147.492 214.971 147.822C213.551 148.932 212.591 150.862 212.531 152.732C212.601 153.952 215.961 152.502 216.641 152.272C222.241 149.982 221.461 146.682 224.631 142.502C225.451 141.422 228.761 137.702 230.281 140.002C231.321 141.572 226.581 146.992 225.001 148.152C223.591 149.192 221.701 150.442 221.881 151.272C221.771 156.482 220.951 161.702 220.691 166.882C220.651 167.752 220.271 170.902 221.281 171.002C225.141 168.592 228.401 165.162 231.991 162.342C236.121 158.982 238.991 158.052 242.301 153.342C243.321 151.882 244.551 147.762 246.631 148.662C246.311 148.882 238.481 160.082 240.721 160.452C244.841 160.742 250.581 156.792 253.581 154.172C254.701 153.192 256.931 150.012 257.911 149.852C259.061 149.652 258.751 150.762 258.411 151.312C258.011 151.972 256.721 152.392 256.031 153.252C254.941 154.602 250.561 161.022 254.811 160.222C258.001 159.622 269.881 150.972 272.781 148.402C277.151 144.532 279.451 139.472 283.841 135.942C286.551 133.762 288.971 133.302 285.981 137.122C283.841 139.992 280.841 142.222 278.251 144.592L275.781 153.832C275.661 154.272 276.161 154.622 276.541 154.362L286.641 148.012L287.391 147.702C287.651 147.642 288.151 147.502 288.341 147.472C293.881 146.732 294.431 142.852 299.421 141.422C303.291 140.312 301.521 144.192 299.921 145.772C296.371 149.272 292.231 147.322 290.211 153.822C287.631 162.152 300.271 154.862 303.121 153.292C308.691 150.222 313.241 146.782 318.291 142.952C318.671 142.662 320.161 140.952 319.771 142.352C318.051 145.332 315.561 147.082 313.731 149.972C311.181 153.992 308.641 157.882 316.191 156.592C317.371 156.962 310.621 158.032 310.091 156.222C309.411 153.942 311.271 151.832 312.301 149.982C312.531 149.562 314.421 147.052 312.641 148.402C308.541 151.072 295.651 160.292 291.171 159.332C286.791 158.392 289.471 152.562 290.181 150.532C290.301 150.202 290.921 149.302 290.601 149.132C289.521 148.572 288.281 148.892 286.981 148.932C286.521 148.942 285.021 149.932 284.781 150.122C280.001 153.952 274.761 155.472 272.041 161.042C271.961 161.362 270.821 161.522 270.321 161.712C270.111 161.772 269.891 161.692 269.771 161.512C269.651 161.272 269.101 160.732 269.211 160.432C269.561 159.392 272.401 157.772 273.251 156.532C274.641 154.532 276.021 150.692 275.831 147.952C275.801 147.532 275.271 147.352 274.981 147.662C274.661 148.002 274.341 148.342 273.961 148.612C269.991 151.492 259.851 160.302 255.401 161.242C251.881 161.982 251.201 160.632 251.721 157.872C251.801 157.452 251.361 157.132 250.991 157.352C248.661 158.742 242.621 163.632 239.631 161.392C238.941 160.872 238.871 159.062 239.031 158.582C239.141 158.222 238.331 158.682 237.981 158.892L237.381 159.322C237.231 159.382 237.201 159.422 237.141 159.472L220.641 173.252C217.361 193.872 203.861 219.142 185.641 230.192C180.361 233.422 173.001 236.052 172.461 227.132C173.141 208.922 205.691 185.842 218.321 173.592C219.991 171.622 219.031 168.842 219.321 166.432M228.871 140.732C227.981 139.912 225.771 143.002 225.321 143.652C224.531 144.782 223.481 145.972 223.601 147.452C224.801 147.152 229.481 141.302 228.871 140.732ZM299.911 142.652C299.221 141.922 294.451 146.352 295.121 146.972C296.501 147.472 300.911 143.722 299.911 142.652ZM204.681 209.182C211.431 199.392 216.381 188.142 218.771 176.482L217.811 175.982C206.151 186.782 172.491 212.092 174.171 228.792C174.721 231.792 177.491 231.882 180.041 231.352C187.181 229.862 200.451 215.322 204.681 209.192V209.182Z" fill="#FAF6F3"/>
<path d="M326.311 132.543C329.561 131.743 330.631 134.893 327.401 135.723C322.051 137.093 321.671 133.683 326.311 132.543Z" fill="#FAF6F3"/>
<path d="M590.739 128.078C589.259 130.788 593.879 128.878 590.739 128.078V128.078Z" fill="#FAF6F3"/>
</g>
<defs>
<clipPath id="clip0_303_61">
<rect width="591.86" height="233.23" fill="white"/>
</clipPath>
</defs>
</svg>
