<svg width="50" height="50" viewBox="0 0 50 50" fill="none" xmlns="http://www.w3.org/2000/svg">
<path d="M21.2226 28.7734C19.7365 27.2918 18.4028 25.6912 17.2216 23.9718C16.0404 22.2519 15.0123 20.4079 14.1372 18.4398C13.54 19.454 13.1015 20.5109 12.8217 21.6103C12.5419 22.7101 12.402 23.8483 12.402 25.025C12.402 28.5146 13.625 31.4826 16.071 33.929C18.5174 36.375 21.4854 37.598 24.975 37.598C26.1299 37.598 27.2554 37.4546 28.3514 37.1676C29.4475 36.8803 30.4983 36.4454 31.504 35.8628C29.5639 34.9806 27.7329 33.9498 26.0108 32.7705C24.2883 31.5912 22.6923 30.2588 21.2226 28.7734ZM22.443 27.6132C24.1554 29.3545 26.0658 30.8822 28.1742 32.1966C30.2826 33.5109 32.5503 34.5648 34.9772 35.3581C33.5807 36.668 32.0381 37.6612 30.3494 38.3379C28.6611 39.0146 26.8884 39.353 25.0312 39.353C21.0705 39.353 17.6924 37.954 14.8968 35.1561C12.1011 32.3579 10.7033 28.9767 10.7033 25.0127C10.7033 23.1653 11.0417 21.3971 11.7183 19.708C12.395 18.0185 13.3883 16.4756 14.6981 15.0791C15.4915 17.506 16.5453 19.7736 17.8597 21.8821C19.174 23.9905 20.7018 25.9009 22.443 27.6132ZM37.9486 31.253C37.6654 31.178 37.3737 31.1026 37.0737 31.0268C36.7739 30.9511 36.5037 30.8549 36.2629 30.7382C36.6912 29.8436 37.0301 28.9195 37.2796 27.966C37.5294 27.0125 37.6543 26.0374 37.6543 25.0408C37.6543 21.4968 36.4245 18.4949 33.965 16.035C31.5051 13.5755 28.5032 12.3457 24.9592 12.3457C23.9539 12.3457 22.9768 12.4633 22.0278 12.6985C21.0784 12.9337 20.1564 13.2656 19.2618 13.6944C19.1436 13.4539 19.0551 13.1962 18.9962 12.9213C18.9373 12.6463 18.873 12.3751 18.8032 12.1077C19.7511 11.6418 20.7453 11.2819 21.7859 11.028C22.8268 10.774 23.9086 10.6471 25.0312 10.6471C29.0058 10.6471 32.3958 12.0497 35.2011 14.8551C38.0065 17.6605 39.4092 21.0505 39.4092 25.025C39.4092 26.1477 39.2822 27.2295 39.0283 28.2704C38.7744 29.3109 38.4144 30.3051 37.9486 31.253ZM24.1507 5.3345V0H25.8493V5.3345H24.1507ZM24.1507 50V44.6661H25.8493V50H24.1507ZM39.5088 11.6947L38.3053 10.4912L41.9586 6.80189L43.2116 8.04141L39.5088 11.6947ZM7.99133 43.1987L6.78839 42.0087L10.4411 38.3059L11.6941 39.5589L7.99133 43.1987ZM44.6655 25.8493V24.1507H50V25.8493H44.6655ZM0 25.8493V24.1507H5.33393V25.8493H0ZM41.9586 43.2116L38.3053 39.5589L39.5088 38.3059L43.1981 42.0087L41.9586 43.2116ZM10.4411 11.6947L6.80133 8.04141L7.99133 6.78839L11.6941 10.4912L10.4411 11.6947Z" fill="#48453C"/>
</svg>
