<?xml version="1.0" encoding="UTF-8"?>
<svg id="Layer_1" data-name="Layer 1" xmlns="http://www.w3.org/2000/svg" viewBox="0 0 591.86 233.23">
  <path d="M241.53,91.47c-17.66,16.69-37.39,30.99-57.72,44.28-7.53,4.92-16.64,9.53-23.74,14.66-.63.46-1.28.91-1.68,1.59,4.17,7.79,3.7,15.86,13.62,18.94,9.67,3,19.91.9,29.58-1.08,4.09-.84,9.11-2.84,13.17-3.15,1-.08,1.89-.5,1.62.9-7.56,2-15.65,4.86-23.33,6.19-9.01,1.56-23.35,1.96-29.71-5.69-3.31-3.99-4.31-9.69-6.23-14.41l-.97-.5c-8.76,4.12-17.13,9.5-26.16,13.22-1.7.72-9.9,3.22-10.32,4.08-.59,2.38-.19,4.97.39,7.31.84,3.43,3.93,7.29,4.55,10.33,1.63,7.91-3,17.56-7.86,23.6-.63.78-1.53,2.51-2.59,2.45.46-2.9,2.92-5.32,4.26-7.98s3.97-8.41,4.35-11.01c1.2-8.2-4.19-11.43-5.62-18.33s2.01-16.51,6.84-21.73c1.57-1.7,4.13-4.35,6.42-2.8l.07,3.29c-1.99.38-1.03-1.88-3.14-.51-1.27.82-4.48,5.86-5.09,7.39-.66,1.63,1.23.58,1.83.14,6.63-4.81,19.6-15.38,28.26-15.13,1.74.05,3.55,2.61,5.48,1.62,30.95-19.4,64.33-39.74,89.55-66.47,23.89-25.31,47.7-67.74-6.73-72.96C182.19,4.09,101.21,52.09,58.95,90.08,39.24,107.8,5.83,144.59,3.28,171.69c-4.54,48.21,58.28,33.53,84.5,20.66,3.59-1.76,9.56-6.42,13.04-6.66.52-.03,1.38-.6,1.11.64-3.92,1.02-6.62,3.8-10.09,5.75-19.93,11.2-66.48,25.89-84.21,5.86-21.19-23.95,6.83-63.52,23.02-82.88C70.63,67.26,152.47,15.78,214.78,7.83c77.74-8.34,75.87,38.76,26.76,83.64ZM125.24,164.05c-.53.48-1.21.71-1,1.63,1.12,1.03,24.87-11.41,27.5-13.05.55-.34,2.82-1.51,2.25-2.3-1.27-.44-2.12-.52-3.47-.37"/>
  <path d="M304.89,121.17c-33.67-7.98-2.16-48.36,8.31-58.8C336.37,39.24,397.78,1.69,430.72.09c64.13-3.7-15.06,104.14-31.76,122.82-3.17,3.66-7.21,7.22-10.23,10.87-.36.44-2.28,2.77-1.93,3.1l35.7-13.97c1.56-1.56,4.98-11.37,6.31-11.93.21-.09,1.19-.19,1.19.23l-3.84,10.31c3-.61,23.47-7.24,24.48-6.23,0,.51.13.99-.21,1.46-.37.51-7.88,1.72-9.39,2.13-5.6,1.49-11.14,3.47-16.54,5.54l-9.13,19.19-.72,4.31,2.87-.48c1.16,1.15-4.86,4.4-4.68-1.07s6.2-14.31,8.12-19.74c.26-.72.58-.56-.34-1.27-12.86,4.66-25.47,9.83-38.01,15.26-26.15,24.68-53.99,48.26-84.37,67.79-8.15,5.24-20.02,12.92-28.97,16.15-24.99,8.84-4.3-19.45,6.63-19.77-4.66,2.21-19.92,13.7-16,19.46,4.88,1.17,19.38-7.2,24.1-9.92,32.05-18.46,62.06-43.34,89.34-68.11.09-1.26-.2-.49-.82-.34-9.2,2.24-20.59,12.48-29.65,15.47-.72.24-1.99,1-1.93-.49,7.97-4.31,15.78-8.91,23.76-13.21,4.3-2.32,11.82-5.01,15.34-7.7,22.67-22,42.22-48.88,57.06-76.86,5.51-10.41,13.7-24.91,15.39-36.45,5.57-38.09-42.02-22.51-62.03-12.17-32.51,16.79-74.59,38.6-92.06,71.67-3.96,7.49-10.27,22.41-2.57,29.13,2.68,2.34,11.23,4.56,13.45,4.79h7.2c2.14,1.87-6.47,1.85-6.78,1.84"/>
  <path d="M462.34,142.35l14.45-8.81c2.09-.72-.36,1.67-1.13,2.7-.63.83-2.58,3.59-2.84,4.36-1.16,3.57,3.29-.42,4.82-1.27.16-.09.23-.27.17-.45-.67-2.14.12-5.13,2.8-4.91,1.97.16.41,2.29,4.68.37,14.86-6.68,20.6-18.98,30.14-30.69.51-.63,4.22-4.69,4.8-4.21.93.78-1.16,3.41-1.72,4.28-5.01,7.66-12.86,14.22-17.65,22.32-.17.29.08.63.41.58,1.9-.33,5.82-3.13,6.46-.97.28,2.5-3.31,4.03-3.72,5.81-.24,1.07-.49,4.53.69,4.9.85.27,7.15-1.73,8.2-2.26,1.98-1,4.27-5.13,6.99-4.36.72.2,1.17,1.48,1.96,1.34,1.38-.24,2.29-4.12,4.38-3.33.93,1.47-1.58,2.22-2.63,3.61-1.24,1.63-2.88,4.24.5,3.38,5.99-1.51,9.91-6.62,15.09-9.4.71-.11.87,0,.73.73-.29,1.47-2.15,3.33-2.38,5.11-.04.28.27.5.53.38,1.86-.87,6.94-7.09,6.56-2.75-.08.85-1.68,3.49-.15,3.26,2.04-.31,6.02-4.95,8.71-5.71,1.41-.4.72,1.68.35,2.75-.1.28.15.57.44.5,2.17-.54,9.2-3.61,10.27-4.17,1.2-.63,3.16-2.76,4.34-2.92,1.1-.15,1.55.9,2.29.91s1.57-1.31,2.64-.96c.89.88-4.07,4.48-1.11,4.97,3.75.63,10.63-2.03,14.07-3.05.68.04-.26.63-.66.83-2.4,1.26-10.97,3.61-13.53,3.21-.72-.11-1.79-.72-2.31-.64-1.02.17-6.5,7.25-9.71,5.77-.11-.05-.19-.16-.21-.28-.33-1.58-.45-2.56.43-3.73.2-.26,0-.65-.32-.62-2.66.26-4.89,2.96-7.92,2.18-.66-.17-.38-1.8-1.93-1.39-2.54.67-8.59,9.61-8.28,1.13.01-.31-.35-.51-.6-.32-1.81,1.38-3.83,4.93-5.55,4.37-1.93-.63.23-3.62.51-5.36.06-.36-.35-.6-.62-.36-3.22,2.79-10.76,8.37-14.29,7.13-.82-.29-.44-1.53-1.48-1.39-1.17.16-3.88,3.23-5.75,2.92-1.6-.16-1.23-1.92-2.42-1.99-2.51-.15-6.33,3.55-8.76.9-.56-.61-.39-2.05-1.22-2.68-.07-.05-.16-.09-.24-.08-.99.16-3.71,3.74-5.51,3.47-.2-.03-.35-.21-.33-.41.35-3.64,7.37-6.37,9.5-8.92,1.12-1.35.69-2.06-.98-1.54-8.13,2.51-13.48,13.4-20.29,17.95-.76-.54-.71-.73-.63-1.58.2-2.05,11.39-11.32,13.34-13.53l-.71-.71c-2.2,2-4.75,3.68-7.3,5.18s-5.83,2.66-8,4-4.73,4.82-7.51,5.49c-4.76,1.14.49-6.27,1.48-7.26,1.32-1.17-3.14,1.82-3.74,2.08-.97.42-10.22,6.2-10.83,6.8-.76.74-4.73,8.41-6.86,5.33s4.49-4.66,5.3-6.28c1.16-2.32,1.14-5.62,1.61-8.22.04-.24-.14-.45-.38-.45-.49,0-2.92,1.32-3.39,1.54-5.5,2.6-11.36,4.33-16.08,6.17-1.81.71-8.89,6.14-10.56,3.37-1.48-2.45,5.46-12.31,5.77-11.93,2.27-1.55-7.15,10.26-4.02,11.3.11.04.21.05.34,0l4.28-1.91c.12-.05.18-.17.23-.29.3-.74-.11-2.52.77-4.23,1.69-3.25,7.79-4.39,6.71-1.08-.12.38-2.51,3.02-.55,2.42,4.63-1.44,12.81-4.54,16.98-6.99,1.54-.9,6.74-5.54,7.43-5.55.63,0,1.36.58,1.2,1.21-5.08,3.18-7.1,4.01-7.36,5.69-.14.91-1.15,8.16-1,8.22M570.15,124.89c-.1-.13-1.41-.4-1.88-.25-.85.28-6.04,4.83-6.75,6.46-.1.24.07.52.33.53,1.42.08,2.48-.71,3.61-1.49.71-.49,5.17-4.64,4.69-5.25ZM520.71,131.61c-1.05-.89-7.15,3.54-6.24,4.31,1.26.77,7.13-3.56,6.24-4.31ZM478.92,135.94c-.79,5.2,4.87-2.67.52-.49l-.52.49ZM442.94,137.84c.09-.23-.06-.5-.3-.53-1.8-.23-3.48.81-4.42,2.24-1.54,2.35.11,3.08,2.1,1.65.46-.33,2.23-2.39,2.62-3.37Z"/>
  <path d="M220.23,151.77c-.62.06-4.48,2.97-7.27,2.62-4.94-.62,2.27-9.15,2.95-8.37.56.27-.51,1.47-.94,1.8-1.42,1.11-2.38,3.04-2.44,4.91.07,1.22,3.43-.23,4.11-.46,5.6-2.29,4.82-5.59,7.99-9.77.82-1.08,4.13-4.8,5.65-2.5,1.04,1.57-3.7,6.99-5.28,8.15-1.41,1.04-3.3,2.29-3.12,3.12-.11,5.21-.93,10.43-1.19,15.61-.04.87-.42,4.02.59,4.12,3.86-2.41,7.12-5.84,10.71-8.66,4.13-3.36,7-4.29,10.31-9,1.02-1.46,2.25-5.58,4.33-4.68-.32.22-8.15,11.42-5.91,11.79,4.12.29,9.86-3.66,12.86-6.28,1.12-.98,3.35-4.16,4.33-4.32,1.15-.2.84.91.5,1.46-.4.66-1.69,1.08-2.38,1.94-1.09,1.35-5.47,7.77-1.22,6.97,3.19-.6,15.07-9.25,17.97-11.82,4.37-3.87,6.67-8.93,11.06-12.46,2.71-2.18,5.13-2.64,2.14,1.18-2.14,2.87-5.14,5.1-7.73,7.47,0,0-2.47,9.24-2.47,9.24-.12.44.38.79.76.53l10.1-6.35.75-.31c.26-.06.76-.2.95-.23,5.54-.74,6.09-4.62,11.08-6.05,3.87-1.11,2.1,2.77.5,4.35-3.55,3.5-7.69,1.55-9.71,8.05-2.58,8.33,10.06,1.04,12.91-.53,5.57-3.07,10.12-6.51,15.17-10.34.38-.29,1.87-2,1.48-.6-1.72,2.98-4.21,4.73-6.04,7.62-2.55,4.02-5.09,7.91,2.46,6.62,1.18.37-5.57,1.44-6.1-.37-.68-2.28,1.18-4.39,2.21-6.24.23-.42,2.12-2.93.34-1.58-4.1,2.67-16.99,11.89-21.47,10.93-4.38-.94-1.7-6.77-.99-8.8.12-.33.74-1.23.42-1.4-1.08-.56-2.32-.24-3.62-.2-.46.01-1.96,1-2.2,1.19-4.78,3.83-10.02,5.35-12.74,10.92-.08.32-1.22.48-1.72.67-.21.06-.43-.02-.55-.2-.12-.24-.67-.78-.56-1.08.35-1.04,3.19-2.66,4.04-3.9,1.39-2,2.77-5.84,2.58-8.58-.03-.42-.56-.6-.85-.29-.32.34-.64.68-1.02.95-3.97,2.88-14.11,11.69-18.56,12.63-3.52.74-4.2-.61-3.68-3.37.08-.42-.36-.74-.73-.52-2.33,1.39-8.37,6.28-11.36,4.04-.69-.52-.76-2.33-.6-2.81.11-.36-.7.1-1.05.31l-.6.43c-.15.06-.18.1-.24.15l-16.5,13.78c-3.28,20.62-16.78,45.89-35,56.94-5.28,3.23-12.64,5.86-13.18-3.06.68-18.21,33.23-41.29,45.86-53.54,1.67-1.97.71-4.75,1-7.16M228.87,140.73c-.89-.82-3.1,2.27-3.55,2.92-.79,1.13-1.84,2.32-1.72,3.8,1.2-.3,5.88-6.15,5.27-6.72ZM299.91,142.65c-.69-.73-5.46,3.7-4.79,4.32,1.38.5,5.79-3.25,4.79-4.32ZM204.68,209.18c6.75-9.79,11.7-21.04,14.09-32.7l-.96-.5c-11.66,10.8-45.32,36.11-43.64,52.81.55,3,3.32,3.09,5.87,2.56,7.14-1.49,20.41-16.03,24.64-22.16Z"/>
  <path d="M326.31,132.54c3.25-.8,4.32,2.35,1.09,3.18-5.35,1.37-5.73-2.04-1.09-3.18Z"/>
  <path d="M590.74,128.08c3.14.8-1.48,2.71,0,0h0Z"/>
</svg>